<svg xmlns="http://www.w3.org/2000/svg" viewBox="0 0 597 394" width="597" height="394"><title>Artboard 1</title><rect x="645" width="23" height="285" rx="2" ry="2" style="fill:#fff"/><path d="M788.792,117.82h-34.83l-6.321,19.35H730.484l31.862-91.848h18.318L812.4,137.17H795.242ZM771.119,64.543,758.09,103.63h26.316L771.377,64.543Z" style="fill:#fff"/><path d="M872.511,88.021l34.313-42.569,21.414-.129-33.54,39.6,33.024,52.245H907.341l-24.769-40.5L872.51,107.758V137.17H856.128V45.322h16.383Z" style="fill:#fff"/><path d="M991.576,109.048l-42.57-.129v1.29q0,7.482,3.548,11.48t10.771,4a14.434,14.434,0,0,0,8.063-2,10.355,10.355,0,0,0,4.192-5.225h15.352a25.906,25.906,0,0,1-9.288,14.706q-7.226,5.8-19.351,5.8-13.674,0-21.35-8.385T933.269,107.5v-6.321q0-14.833,7.869-23.22t21.93-8.385q14.575,0,21.543,8.256t6.966,23.606Zm-42.57-11.61h26.059v-1.29q0-6.192-3.161-10t-9.352-3.806q-6.322,0-9.934,4.063a14.508,14.508,0,0,0-3.612,10Z" style="fill:#fff"/><path d="M999.316,164.9V151.747a26.925,26.925,0,0,0,7.481,1.161,12.632,12.632,0,0,0,7.225-2q2.965-2,5.03-7.288l2.968-7.354L998.542,71.38h16.512l14.965,46.827h.258l15.867-46.827h17.027l-28.251,73.659q-4.129,10.705-10.126,15.932t-15.8,5.225A34.245,34.245,0,0,1,999.316,164.9Z" style="fill:#fff"/><path d="M1094.9,110.66q-11.61-2-18-6.385T1070.522,90.6q0-9.674,6.772-15.351t18.77-5.676q24.12,0,25.154,19.865H1106q-.647-7.479-10.062-7.481-5.032,0-7.74,2a6.448,6.448,0,0,0-2.709,5.482q0,5.032,5.225,6.579t13.674,3.419q8.448,1.872,12.965,6.063t4.515,12.062q0,9.936-7.288,15.674t-19.544,5.74q-13.159,0-19.544-5.289t-6.9-16h14.577q.258,4.644,3.226,6.9t8.9,2.257q5.288,0,8.256-2.063a6.547,6.547,0,0,0,2.968-5.676Q1106.514,112.661,1094.9,110.66Z" style="fill:#fff"/><path d="M1135.407,59.125V41.968H1153.6V59.125Zm1.419,78.045V71.38h15.48v65.79Z" style="fill:#fff"/><path d="M1169.592,143.878h15.738a10.189,10.189,0,0,0,3.676,7.353q3.29,2.71,9.481,2.709,7.223,0,10.772-3.676t3.547-11.417v-10.32h-.258q-6.453,8.127-18.318,8.127-12.384,0-19.221-7.74t-6.837-22.833V101.7q0-14.833,7.095-23.479t20-8.643a25.647,25.647,0,0,1,10.771,2,15.125,15.125,0,0,1,6.515,5.354h.258V71.38h15.352v67.467q0,13.545-7.8,20.9t-23.026,7.353q-12.772,0-20-6T1169.592,143.878Zm18.254-25.349q3.546,4.581,10.513,4.58,7.094,0,10.771-4.58t3.677-13.609v-3.741q0-9.028-3.354-13.609t-10.707-4.579q-14.449,0-14.448,20.64,0,10.322,3.548,14.9Z" style="fill:#fff"/><path d="M1262.212,80.022h.259a19.527,19.527,0,0,1,7.353-7.61,22.345,22.345,0,0,1,11.61-2.838q11.222,0,16.576,6.579t5.354,19.479V137.17h-15.479V98.212q0-7.093-2.773-10.9t-9.095-3.806q-7.1,0-10.449,4.709t-3.354,12.19V137.17h-15.479V43h15.479Z" style="fill:#fff"/><path d="M1325.422,51.256H1340.9V71.38h17.157V84.021H1340.9v31.348q0,5.03,1.871,7.224t6.514,2.193h8.386V137.3h-13.287q-10.192,0-14.577-5.1t-4.386-15.157V84.021h-10.707V71.38h10.707Z" style="fill:#fff"/><path d="M787.5,213.214v.258a19.585,19.585,0,0,1,12.836,6.45q4.707,5.418,4.708,14.062,0,14.448-9.03,20.317T770.99,260.17H740.03V168.322h36.636q12.511,0,19.608,6.127t7.095,17.351a22.75,22.75,0,0,1-4.321,13.867A19.29,19.29,0,0,1,787.5,213.214Zm-16.512-30.7H756.413v24.51h14.319q6.706,0,10.965-3.1t4.257-9.675q0-5.805-3.612-8.772t-11.352-2.965ZM769.571,220.7H756.413v25.283h13.8q8.514,0,12.9-2.838t4.386-9.675q0-7.61-4.45-10.19T769.571,220.7Z" style="fill:#fff"/><path d="M861.933,251.4h-.258a20.138,20.138,0,0,1-7.288,7.676,21.607,21.607,0,0,1-11.546,2.9q-11.222,0-16.576-6.515t-5.354-19.543V194.38H836.39v38.958q0,7.1,2.709,10.9t9.159,3.806q7.093,0,10.385-4.644t3.289-12.256V194.38h15.48v65.79h-15.48Z" style="fill:#fff"/><path d="M917.4,233.66q-11.61-2-18-6.385T893.021,213.6q0-9.674,6.772-15.351t18.77-5.676q24.12,0,25.154,19.865H928.5q-.647-7.479-10.062-7.481-5.032,0-7.74,2a6.448,6.448,0,0,0-2.709,5.482q0,5.032,5.225,6.579t13.674,3.419q8.448,1.872,12.965,6.063t4.515,12.062q0,9.936-7.288,15.674t-19.544,5.74q-13.159,0-19.544-5.289t-6.9-16h14.577q.258,4.644,3.226,6.9t8.9,2.257q5.288,0,8.256-2.063a6.547,6.547,0,0,0,2.968-5.676Q929.012,235.661,917.4,233.66Z" style="fill:#fff"/><path d="M957.905,182.125V164.968h18.189v17.157Zm1.419,78.045V194.38H974.8v65.79Z" style="fill:#fff"/><path d="M1008.859,203.022h.259a19.528,19.528,0,0,1,7.353-7.61,22.345,22.345,0,0,1,11.61-2.838q11.222,0,16.576,6.579t5.354,19.479V260.17h-15.479V221.212q0-7.093-2.773-10.9t-9.095-3.806q-7.1,0-10.449,4.773t-3.354,12.255V260.17H993.38V194.38h15.479Z" style="fill:#fff"/><path d="M1123.8,232.048l-42.57-.129v1.29q0,7.482,3.548,11.48t10.771,4a14.434,14.434,0,0,0,8.063-2,10.355,10.355,0,0,0,4.192-5.225h15.352a25.906,25.906,0,0,1-9.288,14.706q-7.226,5.8-19.351,5.8-13.674,0-21.35-8.385T1065.49,230.5v-6.321q0-14.833,7.869-23.22t21.93-8.385q14.575,0,21.543,8.256t6.966,23.606Zm-42.57-11.61h26.059v-1.29q0-6.192-3.161-10t-9.352-3.806q-6.322,0-9.934,4.063a14.508,14.508,0,0,0-3.612,10Z" style="fill:#fff"/><path d="M1160.949,233.66q-11.61-2-18-6.385t-6.385-13.675q0-9.674,6.772-15.351t18.77-5.676q24.12,0,25.154,19.865h-15.222q-.647-7.479-10.062-7.481-5.032,0-7.74,2a6.448,6.448,0,0,0-2.709,5.482q0,5.032,5.225,6.579t13.674,3.419q8.448,1.872,12.965,6.063t4.515,12.062q0,9.936-7.288,15.674t-19.544,5.74q-13.159,0-19.544-5.289t-6.9-16h14.577q.258,4.644,3.226,6.9t8.9,2.257q5.288,0,8.256-2.063a6.547,6.547,0,0,0,2.968-5.676Q1172.56,235.661,1160.949,233.66Z" style="fill:#fff"/><path d="M1224.157,233.66q-11.61-2-18-6.385t-6.385-13.675q0-9.674,6.772-15.351t18.77-5.676q24.12,0,25.154,19.865h-15.222q-.647-7.479-10.062-7.481-5.032,0-7.74,2a6.448,6.448,0,0,0-2.709,5.482q0,5.032,5.225,6.579t13.674,3.419q8.448,1.872,12.965,6.063t4.515,12.062q0,9.936-7.288,15.674t-19.544,5.74q-13.159,0-19.544-5.289t-6.9-16h14.577q.258,4.644,3.226,6.9t8.9,2.257q5.288,0,8.256-2.063a6.547,6.547,0,0,0,2.968-5.676Q1235.768,235.661,1224.157,233.66Z" style="fill:#fff"/><path d="M48.831,253.493a10.769,10.769,0,0,1-1.543,5.966c-1.04,1.623-3.149,2.443-6.4,2.443H9.513Q.7,261.9.7,253.493V53.861q0-8.388,8.808-8.4h31.37c3.256,0,5.365.808,6.4,2.43a10.842,10.842,0,0,1,1.543,5.972Z" style="fill:#fff"/><path d="M195.873,151.459,266.1,252.628c1.468,2.357,1.761,4.478.86,6.4-.86,1.909-2.789,2.877-5.723,2.877H223.681a12.693,12.693,0,0,1-6.832-1.551,15.78,15.78,0,0,1-4.667-5.074l-44.154-68.9-44.164,68.9a13.037,13.037,0,0,1-11.928,6.625H74.84c-2.963,0-4.788-.9-5.541-2.659-.715-1.753-.35-3.966,1.107-6.615l70.227-101.169L74.394,54.293c-1.489-2.048-1.842-4.049-1.112-5.943.744-1.929,2.563-2.891,5.528-2.891h37.532c3.258,0,5.375.522,6.406,1.541a48.662,48.662,0,0,1,4.183,5.081l41.534,64.061,41.073-64.061A23.623,23.623,0,0,1,213.52,47c1.182-1.019,3.1-1.541,5.749-1.541h39.316c3.5,0,5.584.886,6.181,2.647s.144,3.824-1.324,6.187Z" style="fill:#fff"/><path d="M337.365,253.493a10.947,10.947,0,0,1-1.526,5.966c-1.037,1.623-3.162,2.443-6.409,2.443H298.07q-8.823,0-8.829-8.409V53.861q0-8.388,8.829-8.4h31.36c3.247,0,5.372.808,6.409,2.43a11.022,11.022,0,0,1,1.526,5.972Z" style="fill:#fff"/><path d="M503.127,236.711a149.689,149.689,0,0,1-37.779,20.779,121.783,121.783,0,0,1-43.51,7.942q-17.654,0-29.375-4.645-11.686-4.616-18.555-12.814a48.229,48.229,0,0,1-9.7-19.646,105.244,105.244,0,0,1-2.861-25.607q-.48-38.9,20.3-56.343t62.747-17.434h56.524v-11.6a60.434,60.434,0,0,0-2.008-16.7,22.585,22.585,0,0,0-7.26-11.365q-5.319-4.474-14.14-6.239a116.309,116.309,0,0,0-22.525-1.807c-3.558,0-7.872.171-13.041.458-5.139.289-10.455.576-15.9.872s-10.879.744-16.352,1.317q-8.165.9-14.789,1.324-6.625.9-9.043.246c-1.642-.46-2.726-2.291-3.315-5.514l-3.98-16.156a9.658,9.658,0,0,1,.887-7.224q1.752-2.815,9.275-5.9A99.193,99.193,0,0,1,405.5,46.3q9.7-1.767,19.876-2.846,10.153-1.116,20.108-1.756c6.622-.434,12.559-.645,17.885-.645q28.683,0,45.7,5.717,17,5.752,25.853,16.133,8.814,10.378,11.48,25.4a194.664,194.664,0,0,1,2.636,33.566v85.254a63.236,63.236,0,0,0,.668,10.362,13.13,13.13,0,0,0,2.212,5.762,8.587,8.587,0,0,0,4.652,2.864,43.525,43.525,0,0,0,8.371,1.323c3.253.3,5.438.887,6.615,1.758s1.784,2.509,1.784,4.865v18.564c0,5.007-3.534,8.082-10.62,9.274-3.5.569-7.056,1.091-10.587,1.528a78.309,78.309,0,0,1-10.158.669q-15.463,0-24.938-5.75c-6.357-3.819-10.687-10.875-13.057-21.178Zm-2.65-73.307H446.57q-16.8,0-26.49,7.725-9.753,7.73-9.728,29.371c0,9.707,2.007,16.418,5.976,20.107s11.092,5.51,21.4,5.51a75.263,75.263,0,0,0,15.481-1.756A123.693,123.693,0,0,0,470,219.5q8.371-3.114,16.345-6.863c5.3-2.478,10-4.91,14.14-7.267Z" style="fill:#fff"/><path d="M59.049-.123c2.366,0,3.235,1.616,1.933,3.591l-10.418,15.8A8.948,8.948,0,0,1,43.9,22.856H5.006c-2.367,0-3.228-1.611-1.918-3.581L13.629,3.457a9,9,0,0,1,6.685-3.58Z" style="fill:#fff"/><path d="M347.584-.123c2.367,0,3.235,1.616,1.935,3.591L339.1,19.265a8.942,8.942,0,0,1-6.669,3.592h-38.89c-2.367,0-3.229-1.611-1.917-3.581L302.166,3.457a9,9,0,0,1,6.686-3.58Z" style="fill:#fff"/></svg>